<?xml version="1.0" standalone="no"?>
<!DOCTYPE svg PUBLIC "-//W3C//DTD SVG 20010904//EN"
 "http://www.w3.org/TR/2001/REC-SVG-20010904/DTD/svg10.dtd">
<svg version="1.0" xmlns="http://www.w3.org/2000/svg"
 width="640.000000pt" height="640.000000pt" viewBox="0 0 640.000000 640.000000"
 preserveAspectRatio="xMidYMid meet">
<metadata>
Created by potrace 1.14, written by Peter Selinger 2001-2017
</metadata>
<g transform="translate(0.000000,640.000000) scale(0.100000,-0.100000)"
fill="#000000" stroke="none">
<path d="M0 4055 l0 -2345 3200 0 3200 0 0 2345 0 2345 -3200 0 -3200 0 0
-2345z m2093 -237 c10 -12 17 -36 17 -58 0 -77 -95 -116 -142 -59 -51 61 6
157 82 142 14 -3 33 -14 43 -25z m1346 -6 c30 -33 24 -87 -14 -119 -36 -31
-71 -29 -106 6 -47 47 -36 110 24 136 39 17 65 11 96 -23z m-988 -63 c20 -20
21 -27 14 -201 l-8 -180 21 11 c12 6 24 16 27 21 4 6 34 25 68 42 56 29 71 32
152 33 79 0 97 -3 147 -28 97 -48 153 -126 189 -264 47 -186 4 -359 -120 -483
-70 -70 -148 -109 -246 -123 -81 -12 -192 0 -220 23 -18 15 -20 76 -2 87 6 4
64 8 127 8 97 0 122 3 162 22 156 72 227 240 184 437 -21 92 -61 151 -126 184
-120 61 -269 -5 -339 -151 l-30 -62 -7 -240 c-7 -269 -11 -285 -68 -285 -62 0
-61 -11 -48 438 20 651 22 692 44 714 24 24 53 23 79 -3z m-946 -4 c140 -37
206 -86 186 -138 -16 -42 -51 -44 -134 -7 -61 28 -84 33 -152 33 -180 1 -286
-85 -273 -223 9 -89 66 -135 255 -203 248 -90 346 -183 346 -330 0 -198 -181
-323 -437 -303 -143 11 -298 65 -312 109 -18 56 30 92 90 67 94 -38 165 -53
266 -54 123 -1 178 15 229 68 35 36 50 98 37 150 -16 66 -107 129 -251 176
-184 60 -298 142 -330 240 -23 69 -17 169 13 231 74 153 277 233 467 184z
m3675 -100 l0 -45 -255 0 -255 0 0 44 c0 34 4 45 17 48 9 2 123 2 255 0 l238
-3 0 -44z m-85 -172 c72 -24 118 -57 146 -106 24 -41 24 -47 29 -342 l5 -300
43 -3 42 -3 0 -53 c0 -61 -7 -66 -90 -66 -45 0 -106 28 -115 53 -2 6 -9 24
-15 40 l-10 27 -61 -45 c-228 -168 -521 -70 -519 174 1 100 49 175 143 221 51
25 89 34 217 50 85 11 165 25 177 30 34 14 49 77 32 131 -20 62 -78 90 -187
92 -107 1 -157 -26 -187 -98 -11 -28 -23 -53 -28 -56 -4 -3 -33 -5 -65 -5
l-57 1 3 30 c12 135 82 208 232 242 68 16 199 9 265 -14z m-3045 -33 c19 -19
20 -30 14 -427 -7 -446 -8 -453 -63 -453 -15 0 -36 9 -46 20 -17 19 -18 43
-12 428 l6 407 26 23 c32 27 49 28 75 2z m1340 2 l23 -19 -2 -402 c-2 -415 -5
-445 -43 -457 -28 -8 -65 3 -72 23 -9 22 -6 744 2 803 5 34 13 47 32 57 32 16
34 16 60 -5z m397 -8 c20 -20 24 -31 19 -57 -4 -17 -9 -119 -13 -227 -9 -299
12 -394 97 -437 118 -61 252 -3 327 139 l28 53 1 259 c2 237 3 261 20 273 26
19 58 16 80 -8 17 -19 19 -42 22 -253 9 -585 -64 -840 -268 -935 -48 -23 -68
-26 -160 -26 -92 0 -112 3 -160 26 -102 48 -159 114 -141 162 19 48 70 49 114
3 52 -55 91 -70 182 -70 132 -1 211 53 256 174 21 55 42 150 35 157 -2 2 -27
-12 -55 -32 -69 -46 -119 -58 -216 -53 -246 14 -314 192 -276 727 8 101 11
117 31 133 30 24 46 23 77 -8z"/>
<path d="M5067 3034 c-21 -8 -86 -21 -144 -30 -125 -18 -162 -31 -191 -69 -44
-55 -41 -128 7 -175 87 -88 298 -41 359 80 17 35 22 61 22 127 0 46 -3 82 -7
82 -5 -1 -25 -8 -46 -15z"/>
</g>
</svg>
